# xmcd CD database file
#
# Track frame offsets:
#	150
#	3817
#	31468
#	52102
#	75467
#	111310
#	123578
#	151634
#	180975
#	196200
#	200563
#	227774
#	250065
#	279968
#	310300
#
# Disc length: 4488 seconds
#
# Revision: 0
# Processed by: cddbd v1.5.1PL2 Copyright (c) Steve Scherf et al.
# Submitted via: CDex 1.51
#
DISCID=ba11860f
DTITLE=Diego Goldsztein - Jewish Standards
DYEAR=2005
DGENRE=Jazz
TTITLE0=Lejaim (Introducción)
TTITLE1=Bashana Haba Ah
TTITLE2=Tumbalalaika
TTITLE3=Adon Olam
TTITLE4=Jerusalem de Oro
TTITLE5=Shalom Aleijem
TTITLE6=Eli, Eli
TTITLE7=Vinemtem a Bisale Mazel
TTITLE8=Cuando el Rey Nimrod
TTITLE9=Introducción - Avinu Malkeinu
TTITLE10=Avinu Malkeinu
TTITLE11=Ose Shalom
TTITLE12=Sunrise, Sunset
TTITLE13=Hi-Ne Matov
TTITLE14=Si Yo Fuera Rico (If I Were a Rich Man)
EXTD=YEAR: 2005
EXTT0=
EXTT1=
EXTT2=
EXTT3=
EXTT4=
EXTT5=
EXTT6=
EXTT7=
EXTT8=
EXTT9=
EXTT10=
EXTT11=
EXTT12=
EXTT13=
EXTT14=
PLAYORDER=
